<svg xmlns="http://www.w3.org/2000/svg" viewBox="0 0 24 24" aria-hidden="true" focusable="false" role="img">
  <path fill="currentColor" d="M4.3 2.6a2.15 2.15 0 0 1 3.04 0l4.66 4.66l4.66-4.66a2.15 2.15 0 1 1 3.04 3.04l-4.66 4.66l5.63 5.63a2.2 2.2 0 0 1 0 3.1l-1.64 1.64a2.2 2.2 0 0 1-3.1 0L10.3 15.04l-2.12 2.12l1.02 1.02a1.25 1.25 0 0 1 0 1.77l-.8.8a1.25 1.25 0 0 1-1.77 0l-3.38-3.38a1.25 1.25 0 0 1 0-1.77l.8-.8a1.25 1.25 0 0 1 1.77 0l1.02 1.02l2.12-2.12l-5.63-5.63a2.2 2.2 0 0 1 0-3.1L4.3 2.6Zm1.52 1.52l-.97.98a.7.7 0 0 0 0 .99l12.6 12.6a.7.7 0 0 0 .99 0l.97-.97a.7.7 0 0 0 0-.99L6.81 4.12a.7.7 0 0 0-.99 0Zm11.5 1.02l-4.08 4.08l1.54 1.54l4.08-4.08a.65.65 0 0 0-.92-.92Zm-7.76 8.1l1.2 1.2l2.12-2.12l-1.2-1.2l-2.12 2.12Z"/>
</svg>
