<svg xmlns="http://www.w3.org/2000/svg" viewBox="0 0 24 24" aria-hidden="true" focusable="false" role="img">
  <path fill="currentColor" d="M8.75 4.25a2.25 2.25 0 1 1 4.5 0a2.25 2.25 0 0 1-4.5 0Zm7.03 2.72a1.25 1.25 0 0 1 1.77 0l2.1 2.1a1.25 1.25 0 0 1-1.77 1.77l-.37-.37l-3.48 3.48a1.25 1.25 0 0 1-1.77 0l-1.18-1.18l-3.2 3.2a1.25 1.25 0 1 1-1.76-1.78l4.08-4.07a1.25 1.25 0 0 1 1.76 0l1.18 1.18l2.6-2.6l-.36-.36a1.25 1.25 0 0 1 .4-2.02Zm-5.18.96c.72 0 1.4.28 1.9.78l.7.7l-1.43 1.43a2.25 2.25 0 0 0-3.18 0l-4.07 4.07a2.72 2.72 0 0 0-.71 2.58l-1.1 2.2a1.25 1.25 0 0 0 1.12 1.81h3.42c.47 0 .9-.26 1.12-.68l1.15-2.3l1.52 2.28c.23.35.62.56 1.04.56h3.92a1.25 1.25 0 0 0 .95-2.06l-2.58-3.03l1.37-1.37c.4-.4.66-.9.78-1.43l-1.43-1.43l-1.42 1.42c-.59.59-1.41.86-2.2.8a2.74 2.74 0 0 1-1.72-.8l-.3-.3l-1.96 1.97l-1.06 2.13a.5.5 0 0 0 .45.72h.92c.19 0 .36-.1.45-.27l.88-1.76l2.1 3.15c.1.14.25.22.42.22h1.65l-2.16-2.53a1.25 1.25 0 0 1-.04-1.58l1.22-1.65l-1.67-1.67a1.25 1.25 0 0 1 0-1.77l.8-.8a1.24 1.24 0 0 1 .88-.37Z"/>
</svg>
