<svg xmlns="http://www.w3.org/2000/svg" viewBox="0 0 24 24" aria-hidden="true" focusable="false" role="img">
  <path fill="currentColor" d="M15.25 3.25a1.25 1.25 0 0 1 1.25-1.25h3.25A1.25 1.25 0 0 1 21 3.25v2.5A1.25 1.25 0 0 1 19.75 7H18.5v2.3A7.7 7.7 0 0 1 10.8 17H5.25A2.25 2.25 0 0 1 3 14.75v-4.5A2.25 2.25 0 0 1 5.25 8h6.2a2.3 2.3 0 0 0 2.3-2.3V4.75a1.5 1.5 0 0 1 1.5-1.5Zm2.5 1.25v1h.75v-1h-.75ZM5.5 10.5v4h5.3a5.2 5.2 0 0 0 5.2-5.2V5.75a3.6 3.6 0 0 1-1.15 3.1a4.8 4.8 0 0 1-3.4 1.65H5.5Zm4 1.25a1.75 1.75 0 1 1 0 3.5a1.75 1.75 0 0 1 0-3.5Zm-7.75 6h11.5a1.25 1.25 0 1 1 0 2.5H1.75a1.25 1.25 0 1 1 0-2.5Z"/>
</svg>
